<svg id="settings_accessibility_black_24dp" xmlns="http://www.w3.org/2000/svg" width="24" height="24" viewBox="0 0 24 24">
  <g id="Group_5983" data-name="Group 5983">
    <rect id="Rectangle_4017" data-name="Rectangle 4017" width="24" height="24" fill="none"/>
  </g>
  <g id="Group_5984" data-name="Group 5984">
    <path id="Path_2196" data-name="Path 2196" d="M20.5,4A34,34,0,0,1,12,5,34,34,0,0,1,3.5,4L3,6A35.449,35.449,0,0,0,9,7V19h2V13h2v6h2V7a35.449,35.449,0,0,0,6-1ZM12,4a2,2,0,1,0-2-2A2.006,2.006,0,0,0,12,4ZM7,24H9V22H7Zm4,0h2V22H11Zm4,0h2V22H15Z" fill="#333"/>
  </g>
</svg>
