<svg id="draw_black_24dp" xmlns="http://www.w3.org/2000/svg" width="24" height="24" viewBox="0 0 24 24">
  <rect id="Rectangle_4013" data-name="Rectangle 4013" width="24" height="24" fill="none"/>
  <path id="Path_2181" data-name="Path 2181" d="M18.85,10.39l1.06-1.06a2,2,0,0,0,0-2.83L18.5,5.09a2,2,0,0,0-2.83,0L14.61,6.15Zm-4.24,1.42L7.41,19H6V17.59l7.19-7.19ZM13.19,7.56,4,16.76V21H8.24l9.19-9.19L13.19,7.56ZM19,17.5c0,2.19-2.54,3.5-5,3.5a1,1,0,0,1,0-2c1.54,0,3-.73,3-1.5,0-.47-.48-.87-1.23-1.2l1.48-1.48A3.041,3.041,0,0,1,19,17.5ZM4.58,13.35A2.667,2.667,0,0,1,3,11C3,9.2,4.89,8.37,6.56,7.64,7.59,7.18,9,6.56,9,6c0-.41-.78-1-2-1a2.432,2.432,0,0,0-1.83.64,1.015,1.015,0,0,1-1.4.12.992.992,0,0,1-.15-1.38A4.251,4.251,0,0,1,7,3c2.24,0,4,1.32,4,3,0,1.87-1.93,2.72-3.64,3.47C6.42,9.88,5,10.5,5,11c0,.31.43.6,1.07.86Z" fill="#333"/>
</svg>
