<?xml version="1.0" standalone="no"?>
<!DOCTYPE svg PUBLIC "-//W3C//DTD SVG 20010904//EN"
 "http://www.w3.org/TR/2001/REC-SVG-20010904/DTD/svg10.dtd">
<svg version="1.0" xmlns="http://www.w3.org/2000/svg"
 width="700.000000pt" height="700.000000pt" viewBox="0 0 700.000000 700.000000"
 preserveAspectRatio="xMidYMid meet">
<metadata>
Created by potrace 1.14, written by Peter Selinger 2001-2017
</metadata>
<g transform="translate(0.000000,700.000000) scale(0.100000,-0.100000)"
fill="#000000" stroke="none">
<path d="M3465 6404 c-16 -7 -399 -151 -850 -320 -451 -169 -831 -311 -845
-317 -14 -5 -34 -13 -45 -18 -11 -4 -140 -52 -287 -106 -170 -63 -268 -103
-270 -113 -2 -8 -3 -438 -2 -955 1 -846 5 -1075 19 -1170 2 -16 7 -52 10 -80
10 -99 45 -286 76 -410 112 -445 334 -889 638 -1275 401 -510 892 -850 1477
-1024 l115 -34 131 39 c244 74 471 177 678 307 92 58 246 165 260 181 3 3 30
26 60 51 153 124 388 372 503 533 17 23 33 44 36 47 13 10 159 236 216 333 64
111 167 322 215 442 79 198 160 494 185 672 3 21 8 47 10 58 2 11 7 47 10 80
3 33 7 69 10 80 13 64 18 361 19 1193 1 514 -1 937 -4 941 -3 4 -81 35 -175
70 -93 34 -179 66 -190 71 -11 5 -353 133 -760 285 -723 270 -799 298 -840
316 -11 5 -47 18 -80 29 -33 12 -69 25 -80 30 -33 13 -106 41 -160 60 -43 15
-54 15 -80 4z m1020 -976 c33 -11 72 -27 88 -35 15 -7 27 -11 27 -7 0 4 6 2
13 -3 6 -5 41 -20 77 -32 36 -12 72 -25 80 -28 8 -4 119 -45 245 -93 l230 -87
0 -784 c0 -708 -4 -878 -21 -989 -14 -94 -43 -248 -50 -272 -3 -10 -8 -30 -10
-45 -12 -65 -116 -358 -163 -457 -28 -60 -51 -110 -51 -112 0 -9 -148 -255
-188 -313 -129 -186 -202 -274 -361 -429 -216 -213 -448 -367 -722 -479 -173
-71 -165 -70 -271 -34 -128 44 -332 146 -458 229 -308 202 -580 489 -791 837
-122 201 -209 392 -277 605 -34 106 -78 281 -87 350 -3 25 -8 52 -10 60 -5 20
-13 78 -22 165 -4 39 -8 430 -8 870 l0 799 60 22 c33 11 67 24 75 27 8 3 258
97 555 207 297 111 549 206 560 211 11 5 127 48 258 97 l239 89 461 -174 c254
-96 489 -183 522 -195z"/>
<path d="M3381 4654 c-214 -44 -402 -228 -451 -441 -13 -58 -16 -165 -5 -232
22 -147 123 -302 249 -381 59 -37 59 -36 42 -116 -2 -12 -7 -37 -10 -55 -3
-19 -8 -45 -10 -59 -14 -72 -47 -260 -52 -290 -3 -19 -7 -42 -9 -50 -2 -8 -7
-31 -10 -50 -3 -19 -12 -71 -20 -115 -8 -44 -17 -98 -21 -120 -3 -22 -9 -57
-14 -77 -5 -27 -4 -38 4 -39 25 -3 851 -5 857 -2 4 1 3 22 -2 45 -5 24 -13 72
-19 108 -6 36 -13 76 -15 90 -3 14 -16 88 -30 165 -14 77 -27 150 -29 161 -3
12 -7 37 -10 55 -6 35 -19 112 -35 202 -6 28 -13 66 -16 82 -6 27 -3 32 32 50
63 33 175 152 210 225 57 117 78 252 58 370 -54 322 -373 540 -694 474z"/>
</g>
</svg>
